C:\Users\r0593348\3dpredictsim\Results\Batchsim_tmt_linear_v2\Pog_s1_tmt_aCst_d02_k500_ig24_pas_GRF.mot
nRows=20
nColumns=19

name C:\Users\r0593348\3dpredictsim\Results\Batchsim_tmt_linear_v2\Pog_s1_tmt_aCst_d02_k500_ig24_pas_GRF.mot
datacolumns 19
datarows 20
range 0.0000000000 0.2065657327
endheader
time 	ground_force_vx	ground_force_vy	ground_force_vz	ground_force_px	ground_force_py	ground_force_pz	1_ground_force_vx	1_ground_force_vy	1_ground_force_vz	1_ground_force_px	1_ground_force_py	1_ground_force_pz	ground_torque_x	ground_torque_y	ground_torque_z	1_ground_torque_x	1_ground_torque_y	1_ground_torque_z
        0.0000000000	      -74.7777652799	       58.9208368468	       19.1456641147	        0.1646364473	        0.0000000000	        0.0446263977	      113.7159554332	      470.8719114952	        2.3210647987	       -0.3515924139	        0.0000000000	       -0.0462037264	        0.0000000000	        0.0000000000	        0.0000000000	        0.0000000000	        0.0000000000	        0.0000000000	
        0.0108718807	     -130.2189864617	      136.2296451075	       50.9234448270	        0.1723274950	        0.0000000000	        0.0429699467	       79.7150988972	      368.8734061958	       -3.8051667470	       -0.3372552445	        0.0000000000	       -0.0440067704	        0.0000000000	        0.0000000000	        0.0000000000	        0.0000000000	        0.0000000000	        0.0000000000	
        0.0217437613	      -63.3747944710	      285.2211216643	       21.8240196784	        0.1785722200	        0.0000000000	        0.0412629737	       41.0338130859	      260.5823564792	       -7.1885071433	       -0.3134575214	        0.0000000000	       -0.0397719824	        0.0000000000	        0.0000000000	        0.0000000000	        0.0000000000	        0.0000000000	        0.0000000000	
        0.0326156420	      -64.7681568019	      468.8316573612	        1.1028947141	        0.1833157359	        0.0000000000	        0.0417470422	       12.5851888830	      174.9252141092	       -8.4380890888	       -0.2812124510	        0.0000000000	       -0.0323762344	        0.0000000000	        0.0000000000	        0.0000000000	        0.0000000000	        0.0000000000	        0.0000000000	
        0.0434875227	     -101.6825692192	      712.2560557323	      -10.8109544919	        0.1934600194	        0.0000000000	        0.0446998235	       -1.4892879959	      140.7769123623	      -11.6317039416	       -0.2705803045	        0.0000000000	       -0.0290043703	        0.0000000000	        0.0000000000	        0.0000000000	        0.0000000000	        0.0000000000	        0.0000000000	
        0.0543594034	     -129.1448257712	      882.8604120177	      -17.1565011777	        0.2006652595	        0.0000000000	        0.0467511307	       -1.8018238700	      107.2764197392	      -12.2569354485	       -0.2700119162	        0.0000000000	       -0.0291541664	        0.0000000000	        0.0000000000	        0.0000000000	        0.0000000000	        0.0000000000	        0.0000000000	
        0.0652312840	     -135.0830180272	      933.8785233601	      -18.6149807222	        0.2055957262	        0.0000000000	        0.0480391311	       -4.3038926152	       69.6257065154	      -11.6564435769	       -0.2694811555	        0.0000000000	       -0.0292890406	        0.0000000000	        0.0000000000	        0.0000000000	        0.0000000000	        0.0000000000	        0.0000000000	
        0.0761031647	     -126.8214979036	      908.3137543506	      -18.0503700797	        0.2094413525	        0.0000000000	        0.0489206655	       -8.5379818179	       29.1586216984	       -6.5225992202	       -0.2697248193	        0.0000000000	       -0.0291629744	        0.0000000000	        0.0000000000	        0.0000000000	        0.0000000000	        0.0000000000	        0.0000000000	
        0.0869750454	     -113.1990055063	      862.1203087391	      -17.1956927333	        0.2131089685	        0.0000000000	        0.0495709321	        0.1416157001	       -0.1413670580	        0.0108871591	        0.0000000000	        0.0000000000	        0.0000000000	        0.0000000000	        0.0000000000	        0.0000000000	        0.0000000000	        0.0000000000	        0.0000000000	
        0.0978469260	      -99.9154306189	      820.6832619849	      -16.8933147941	        0.2173569250	        0.0000000000	        0.0502889353	        0.0002601273	       -0.0002130586	       -0.0000044726	        0.0000000000	        0.0000000000	        0.0000000000	        0.0000000000	        0.0000000000	        0.0000000000	        0.0000000000	        0.0000000000	        0.0000000000	
        0.1087188067	      -92.0818345592	      791.4430355569	      -17.4016191008	        0.2230162463	        0.0000000000	        0.0507796803	        0.0001360508	       -0.0000973661	       -0.0000047609	        0.0000000000	        0.0000000000	        0.0000000000	        0.0000000000	        0.0000000000	        0.0000000000	        0.0000000000	        0.0000000000	        0.0000000000	
        0.1195906874	      -83.5659661150	      758.9322941440	      -17.0317630328	        0.2289596840	        0.0000000000	        0.0509498977	        0.0011477210	       -0.0007362618	       -0.0000498172	        0.0000000000	        0.0000000000	        0.0000000000	        0.0000000000	        0.0000000000	        0.0000000000	        0.0000000000	        0.0000000000	        0.0000000000	
        0.1304625681	      -74.8952417625	      722.1048975864	      -16.7956136960	        0.2346673483	        0.0000000000	        0.0510264504	        0.0065113246	       -0.0038273709	       -0.0003089363	        0.0000000000	        0.0000000000	        0.0000000000	        0.0000000000	        0.0000000000	        0.0000000000	        0.0000000000	        0.0000000000	        0.0000000000	
        0.1413344487	      -66.7339167676	      688.9869516553	      -16.4905620655	        0.2402823409	        0.0000000000	        0.0509888381	       -0.0538118339	        0.0294298837	        0.0026834302	        0.0000000000	        0.0000000000	        0.0000000000	        0.0000000000	        0.0000000000	        0.0000000000	        0.0000000000	        0.0000000000	        0.0000000000	
        0.1522063294	      -59.0762177725	      662.4414666543	      -16.4967798422	        0.2457502656	        0.0000000000	        0.0509257964	       -0.0379256619	        0.0195130608	        0.0019555196	        0.0000000000	        0.0000000000	        0.0000000000	        0.0000000000	        0.0000000000	        0.0000000000	        0.0000000000	        0.0000000000	        0.0000000000	
        0.1630782101	      -51.9698106325	      641.6138444514	      -16.7081900002	        0.2509781048	        0.0000000000	        0.0508527718	       -0.0271178987	        0.0132390715	        0.0014254847	        0.0000000000	        0.0000000000	        0.0000000000	        0.0000000000	        0.0000000000	        0.0000000000	        0.0000000000	        0.0000000000	        0.0000000000	
        0.1739500907	      -46.0680221653	      625.8813191900	      -17.1511501994	        0.2559227326	        0.0000000000	        0.0507525843	       -0.0243447993	        0.0113508097	        0.0012951613	        0.0000000000	        0.0000000000	        0.0000000000	        0.0000000000	        0.0000000000	        0.0000000000	        0.0000000000	        0.0000000000	        0.0000000000	
        0.1848219714	      -41.6975046427	      614.6194791617	      -17.7778827734	        0.2605068188	        0.0000000000	        0.0506233080	       -0.0282413712	        0.0126449947	        0.0015186496	        0.0000000000	        0.0000000000	        0.0000000000	        0.0000000000	        0.0000000000	        0.0000000000	        0.0000000000	        0.0000000000	        0.0000000000	
        0.1956938521	      -37.8019302936	      606.6160815729	      -18.5967174849	        0.2647614353	        0.0000000000	        0.0504712071	       -0.0407625809	        0.0176202937	        0.0022190981	        0.0000000000	        0.0000000000	        0.0000000000	        0.0000000000	        0.0000000000	        0.0000000000	        0.0000000000	        0.0000000000	        0.0000000000	
        0.2065657327	      -34.0064439040	      600.2388783194	      -19.6114748676	        0.2687403048	        0.0000000000	        0.0502975353	       -0.0687961652	        0.0288493199	        0.0038056170	        0.0000000000	        0.0000000000	        0.0000000000	        0.0000000000	        0.0000000000	        0.0000000000	        0.0000000000	        0.0000000000	        0.0000000000	
